<svg xmlns="http://www.w3.org/2000/svg" xmlns:xlink="http://www.w3.org/1999/xlink" xmlns:lucid="lucid" width="1201" height="690.13"><g transform="translate(360.5 -130.37393764479458)" lucid:page-tab-id="0_0"><path d="M-220 635.4h-13.68v8.28H-220v5.4h-13.68v8.16H-220v5.52h-13.68v8.16H-220v5.4h-13.68v8.28H-220v5.4h-13.68v7.8c0 4.68-3.84 8.52-8.52 8.52h-7.8V720h-5.4v-13.68h-8.28V720h-5.4v-13.68h-8.16V720h-5.52v-13.68h-8.16V720h-5.4v-13.68h-8.28V720h-5.4v-13.68h-7.8c-4.68 0-8.52-3.84-8.52-8.52V690H-340v-5.4h13.68v-8.28H-340v-5.4h13.68v-8.16H-340v-5.52h13.68v-8.16H-340v-5.4h13.68v-8.28H-340V630h13.68v-7.8c0-4.68 3.84-8.52 8.52-8.52h7.8V600h5.4v13.68h8.28V600h5.4v13.68h8.16V600h5.52v13.68h8.16V600h5.4v13.68h8.28V600h5.4v13.68h7.8c4.68 0 8.52 3.84 8.52 8.52v7.8H-220zm-19.08 62.4v-75.6c0-1.68-1.44-3.12-3.12-3.12h-75.6c-1.68 0-3.12 1.44-3.12 3.12v75.6c0 1.68 1.44 3.12 3.12 3.12h75.6c1.68 0 3.12-1.44 3.12-3.12zm-30-28.2c3.48 3.12 5.4 7.44 5.4 12.12 0 5.04-2.16 9.6-6 12.72-2.88 2.4-6.6 3.72-10.32 3.72-1.2 0-2.28-.12-3.48-.36-6.36-1.32-11.4-6.6-12.6-12.96-1.08-5.76.96-11.4 5.16-15.24v-36.84c0-6 4.92-10.92 10.92-10.92s10.92 4.92 10.92 10.92zm-4.08 20.64c2.64-2.16 4.08-5.16 4.08-8.52 0-3.36-1.56-6.48-4.44-8.64l-1.08-.84v-39.48c0-3-2.4-5.52-5.4-5.52-3 0-5.4 2.52-5.4 5.52v39.48l-1.08.84c-3.48 2.52-5.04 6.6-4.2 10.68.72 4.32 4.08 7.8 8.28 8.64 3.36.72 6.72-.12 9.24-2.16zm-4.08-16.2c3.12 1.2 5.4 4.2 5.4 7.68 0 4.56-3.6 8.16-8.16 8.16-4.56 0-8.16-3.6-8.16-8.16 0-3.48 2.28-6.48 5.4-7.68v-30.36h5.52zm-26.4-43.56c.24.48.72 1.32 1.32 2.4 3 5.16 5.64 10.08 5.64 13.32 0 5.16-4.2 9.36-9.36 9.36-5.16 0-9.36-4.2-9.36-9.36 0-3.24 2.64-8.16 5.52-13.32.6-1.08 1.08-1.92 1.32-2.4.48-.96 1.44-1.56 2.52-1.56.96 0 1.92.6 2.4 1.56zm39.96 4.92V630H-250v5.4zm0 21.84v-5.4H-250v5.4zm-42.36-7.08c2.16 0 3.84-1.8 3.84-3.96 0-1.68-2.28-6-3.84-9-1.68 3-3.96 7.32-3.96 9 0 2.16 1.8 3.96 3.96 3.96zm42.36-3.84v-5.4h10.92v5.4zm0 21.84v-5.4h10.92v5.4zM-280 684.48c1.56 0 2.76-1.2 2.76-2.76 0-1.44-1.2-2.64-2.76-2.64-1.56 0-2.76 1.2-2.76 2.64 0 1.56 1.2 2.76 2.76 2.76zM-20 635.4h-13.68v8.28H-20v5.4h-13.68v8.16H-20v5.52h-13.68v8.16H-20v5.4h-13.68v8.28H-20v5.4h-13.68v7.8c0 4.68-3.84 8.52-8.52 8.52H-50V720h-5.4v-13.68h-8.28V720h-5.4v-13.68h-8.16V720h-5.52v-13.68h-8.16V720h-5.4v-13.68h-8.28V720h-5.4v-13.68h-7.8c-4.68 0-8.52-3.84-8.52-8.52V690H-140v-5.4h13.68v-8.28H-140v-5.4h13.68v-8.16H-140v-5.52h13.68v-8.16H-140v-5.4h13.68v-8.28H-140V630h13.68v-7.8c0-4.68 3.84-8.52 8.52-8.52h7.8V600h5.4v13.68h8.28V600h5.4v13.68h8.16V600h5.52v13.68h8.16V600h5.4v13.68h8.28V600h5.4v13.68h7.8c4.68 0 8.52 3.84 8.52 8.52v7.8H-20zm-19.08 62.4v-75.6c0-1.68-1.44-3.12-3.12-3.12h-75.6c-1.68 0-3.12 1.44-3.12 3.12v75.6c0 1.68 1.44 3.12 3.12 3.12h75.6c1.68 0 3.12-1.44 3.12-3.12zm-65.64-17.16l11.28 7.08-2.88 4.56-14.4-9 2.64-14.16-8.4-9.12 8.4-9-2.64-14.28 14.4-9 2.88 4.56-11.28 7.08 2.52 13.32-6.84 7.32 6.84 7.32zm61.2-20.64l-8.4 9.12 2.64 14.16-14.4 9-2.88-4.56 11.28-7.08-2.52-13.32 6.84-7.32-6.84-7.32 2.52-13.32-11.28-7.08 2.88-4.56 14.4 9-2.64 14.28zm-48.12 14.16l5.64 3-2.64 4.8-9-4.8 1.68-10.56-5.16-6.6 5.16-6.6-1.68-10.56 9-4.8 2.64 4.8-5.64 3 1.44 9-3.96 5.16 3.96 5.16zm29.28 3l-9 4.8-2.64-4.8 5.64-3-1.44-9 3.96-5.16-3.96-5.16 1.44-9-5.64-3 2.64-4.8 9 4.8-1.68 10.56 5.16 6.6-5.16 6.6zM-80 651.84c4.56 0 8.16 3.6 8.16 8.16 0 4.56-3.6 8.16-8.16 8.16-4.56 0-8.16-3.6-8.16-8.16 0-4.56 3.6-8.16 8.16-8.16zm0 10.92c1.56 0 2.76-1.2 2.76-2.76 0-1.56-1.2-2.76-2.76-2.76-1.56 0-2.76 1.2-2.76 2.76 0 1.56 1.2 2.76 2.76 2.76z" stroke="#000" stroke-opacity="0" fill="#3f8624"/><path d="M159.73 708.34H80.27c-4.74 0-8.6-3.87-8.6-8.6v-79.52c0-4.64 3.86-8.5 8.6-8.5h79.46c4.74 0 8.6 3.86 8.6 8.5v79.52c0 4.73-3.86 8.6-8.6 8.6zm-79.46-91.12h-.1c-1.64 0-3.1 1.36-3.1 3v79.52c0 1.74 1.46 3.1 3.2 3.1h79.46c1.75 0 3.2-1.36 3.2-3.1v-79.52c-.1-1.64-1.46-3.1-3.2-3z" stroke="#fff" stroke-opacity="0" fill="#3f8624"/><path d="M88.46 600h5.46v14.4h-5.46V600zM102.88 600h5.46v14.4h-5.46V600zM117.27 600h5.46v14.4h-5.46V600zM131.66 600h5.46v14.4h-5.46V600zM146.08 600h5.46v14.4h-5.46V600zM88.46 705.6h5.46V720h-5.46v-14.4zM102.88 705.6h5.46V720h-5.46v-14.4zM117.27 705.6h5.46V720h-5.46v-14.4zM131.66 705.6h5.46V720h-5.46v-14.4zM146.08 705.6h5.46V720h-5.46v-14.4zM60 628.46h14.4v5.46H60v-5.46zM60 642.88h14.4v5.46H60v-5.46zM60 657.27h14.4v5.46H60v-5.46zM60 671.66h14.4v5.46H60v-5.46zM60 686.08h14.4v5.46H60v-5.46zM165.6 628.46H180v5.46h-14.4v-5.46zM165.6 642.88H180v5.46h-14.4v-5.46zM165.6 657.27H180v5.46h-14.4v-5.46zM165.6 671.66H180v5.46h-14.4v-5.46zM165.6 686.08H180v5.46h-14.4v-5.46zM123.22 685.2c-12.06 0-21.84-9.78-21.84-21.84s9.78-21.85 21.84-21.85 21.85 9.8 21.85 21.86c0 12.06-9.8 21.85-21.85 21.85zm0-38.23c-9.04 0-16.38 7.34-16.38 16.4 0 9.03 7.34 16.38 16.38 16.38 9.05 0 16.4-7.35 16.4-16.4-.06-9-7.4-16.3-16.4-16.25z" stroke="#fff" stroke-opacity="0" fill="#3f8624"/><path d="M123.22 677.56c-7.82 0-14.17-6.35-14.17-14.17 0-7.84 6.35-14.2 14.17-14.2 7.83 0 14.18 6.36 14.18 14.2-.03 7.84-6.35 14.16-14.18 14.16zm0-22.85c-4.82 0-8.7 3.9-8.7 8.7 0 4.83 3.88 8.72 8.7 8.72 4.82 0 8.7-3.9 8.7-8.7 0-4.82-3.88-8.7-8.7-8.7zM100.88 643.6h-9.7c-1.5 0-2.73-1.2-2.73-2.72v-4.34c-.24-2.87 1.9-5.42 4.76-5.68h5.47c2.88.14 5.1 2.6 4.97 5.46-.02.07-.02.14-.02.22v4.35c0 1.5-1.23 2.7-2.74 2.7zM94 638.16h4.15v-1.52-.22h-4.1v.23zM99.3 652.8h-6.6c-.8.02-1.46-.6-1.5-1.38v-2.04c.04-.8.7-1.4 1.5-1.37h6.6c.8-.02 1.45.6 1.5 1.38v2.04c-.05.8-.7 1.4-1.5 1.37z" stroke="#fff" stroke-opacity="0" fill="#3f8624"/><path d="M151.52 691.54h-63.1c-4.02 0-7.2-3.2-7.2-7.2v-39.1c.08-3.9 3.25-7.07 7.2-7.07h19.85l.77-3.9c.47-2.28 2.48-5.8 5.74-5.8h17.2c3.34 0 5.28 3.52 5.74 5.8l.85 3.9h12.95c4.03 0 7.2 3.22 7.2 7.2v38.98c0 3.98-3.17 7.2-7.2 7.2zm-63.1-47.94c-1 0-1.78.75-1.78 1.76v39c0 .94.78 1.7 1.8 1.7h63.08c1 0 1.78-.76 1.78-1.7v-39.12c0-.95-.78-1.7-1.78-1.7H136.4c-1.3 0-2.48-.9-2.7-2.2l-1.33-5.94c-.15-.5-.3-.95-.7-1.45h-16.42c-.3.44-.55.88-.7 1.45l-1.24 6c-.3 1.25-1.4 2.2-2.78 2.13z" stroke="#fff" stroke-opacity="0" fill="#3f8624"/><path d="M-149.85 323.53l-22.7-78.47h12.17l16.28 66.54 16.73-66.55h11.73l-22.54 78.48zM-95.28 293.06v30.47h-10.7V245.4h23c8.13-.24 15.2 4.14 18.55 11.56 1.85 4.14 2.65 7.97 2.56 12.43.3 6.63-1.6 12.33-5.83 17.4-3.97 4.54-9.22 6.8-15.27 6.65zm0-8.75h11.16c3.4.16 6.36-1.24 8.3-4.05 2.25-3.44 3.18-7.04 2.87-11.18.27-4.22-.75-7.8-3.05-11.33-2.03-2.65-4.98-4.06-8.34-3.98h-10.94zM-3.8 321.14c-5.26 2.4-10.2 3.54-16 3.46-20.25 0-30.4-13.36-30.4-40.07-.78-11.1 1.73-20.75 7.83-30.1 5.72-7.23 13.8-10.77 22.98-10.2 5.3.08 9.78.96 14.66 3.05v8.93c-4.56-1.52-8.56-2.24-13.35-2.32-6.27-.48-11.85 2-15.57 7.08-4.05 7.16-5.63 14.24-4.98 22.37v2.73c-.56 7.97.93 14.96 4.74 22.05 3.67 5.07 9.16 7.57 15.35 7.08 5.3-.24 9.72-1.12 14.74-2.8z" stroke="#fff" stroke-opacity="0" fill="#232f3e"/><path d="M-3.2 348.6h-179.2c-30.72 0-56-19.92-57.6-49.7v-4.14c0-34.3 23.36-49.7 43.84-54.62-.32-3.35-.32-6.3-.32-9.66.96-32.15 18.88-58.77 48-72.18 32-13.6 66.88-6.9 91.2 17.75 10.56 10.45 17.6 21.5 22.4 35.5 18.88-24.26 60.16-16.96 62.72 27.8C47.68 243.3 80 255.32 80 295.55c0 46.34-34.88 53.05-57.6 53.05H-3.2z" stroke="#232f3e" stroke-width="2" fill="#fff" fill-opacity="0"/><path d="M-190 246a6 6 0 0 1 6-6H14a6 6 0 0 1 6 6v88a6 6 0 0 1-6 6h-198a6 6 0 0 1-6-6z" fill="#fff"/><path d="M-77.25 285.3l-21.42-36.8c-1.67-2.97-4.58-4.63-8-4.73h-42.65c-3.43.1-6.34 1.76-8 4.72l-21.43 36.7c-1.67 2.86-1.67 6.2 0 9.15l21.42 36.98c1.67 3.05 4.47 4.8 8 4.9h42.65c3.43-.1 6.34-1.85 8-4.9l21.43-36.7c1.67-3.06 1.67-6.4 0-9.34z" stroke="#000" stroke-opacity="0" fill="#4285f4"/><path d="M-102.5 273.5l-1.86 1.66-14.3-8.03-6.78-6.75-27.8 17.74 1.57 1.6-.3 20.1-1.27 4.7 31.97 31.68h14.6c3.43-.15 6.34-1.9 8.05-4.85l19.9-34.27z" stroke="#000" stroke-opacity="0" fill-opacity=".07"/><path d="M-124.47 262.7c0 1.82-1.48 3.3-3.3 3.3-1.84 0-3.32-1.48-3.32-3.3 0-1.8 1.5-3.27 3.32-3.27 1.83 0 3.3 1.47 3.3 3.28zM-101.52 275.84c0 1.8-1.48 3.28-3.3 3.28-1.84 0-3.33-1.47-3.33-3.28 0-1.8 1.5-3.28 3.32-3.28 1.83 0 3.3 1.47 3.3 3.28zM-147.57 275.84c0 1.8-1.5 3.28-3.3 3.28-1.84 0-3.33-1.47-3.33-3.28 0-1.8 1.5-3.28 3.32-3.28 1.82 0 3.3 1.47 3.3 3.28zM-122.57 289.94c0 2.84-2.34 5.15-5.2 5.15-2.88 0-5.2-2.32-5.2-5.16 0-2.84 2.32-5.15 5.2-5.15 2.86 0 5.2 2.3 5.2 5.14zM-101.52 302.26c0 1.8-1.48 3.28-3.3 3.28-1.84 0-3.33-1.47-3.33-3.28 0-1.8 1.5-3.28 3.32-3.28 1.83 0 3.3 1.47 3.3 3.28zM-147.57 302.26c0 1.8-1.5 3.28-3.3 3.28-1.84 0-3.33-1.47-3.33-3.28 0-1.8 1.5-3.28 3.32-3.28 1.82 0 3.3 1.47 3.3 3.28z" stroke="#000" stroke-opacity="0" fill="#fff"/><path d="M-127.9 291.06l-25.58-15.2 25.58-14.65 25.58 14.36zm-20.82-15.17l20.82 12.38 20.88-12.63-20.88-11.7z" stroke="#000" stroke-opacity="0" fill="#fff"/><path d="M-127.88 319.16l-25.67-17.05 25.72-14.1 25.32 14.27zm-21.13-16.9l21.12 14 20.82-13.84-20.77-11.7z" stroke="#000" stroke-opacity="0" fill="#fff"/><path d="M-152.3 276.34l2.1-1.16 23.2 41.78-2.1 1.16-23.2-41.78z" stroke="#000" stroke-opacity="0" stroke-width=".88" fill="#fff"/><path d="M-128.8 317.3l22.7-41.7 2.1 1.1-22.7 41.7-2.1-1.1z" stroke="#000" stroke-opacity="0" stroke-width=".47" fill="#fff"/><path d="M-152 301.5l22.9-39.3 2.1 1.17-22.93 39.3-2.07-1.17z" stroke="#000" stroke-opacity="0" stroke-width=".5" fill="#fff"/><path d="M-128.77 263.18l2.08-1.2 23 39.9-2.08 1.2-23-39.9z" stroke="#000" stroke-opacity="0" stroke-width=".87" fill="#fff"/><path d="M-128.97 262.37h2.4v55.14h-2.4v-55.13zM-152.5 276.1h2.4v26.62h-2.4v-26.6zM-106.04 275.83h2.4v26.6h-2.4v-26.6z" stroke="#000" stroke-opacity="0" fill="#fff"/><path d="M-124.47 317.6c0 1.82-1.48 3.3-3.3 3.3-1.84 0-3.32-1.48-3.32-3.3 0-1.8 1.5-3.27 3.32-3.27 1.83 0 3.3 1.47 3.3 3.28z" stroke="#000" stroke-opacity="0" fill="#fff"/><path d="M-278.17 597.62L-104.23 371" stroke="#3a414a" stroke-width="6" fill="none"/><path d="M-275.75 599.4l-1.5 1.93V600h-5.5v1.66l-1.46-1.1 3.7-4.83z" stroke="#3a414a" stroke-width=".05" fill="#3a414a"/><path d="M-93.7 357.3l-5.02 14.14-7.36-5.64z" stroke="#3a414a" stroke-width="6" fill="#3a414a"/><path d="M-80 597V376.57" stroke="#3a414a" stroke-width="6" fill="none"/><path d="M-77 603h-.24v-3h-5.52v3H-83v-6.08h6z" stroke="#3a414a" stroke-width=".05" fill="#3a414a"/><path d="M-80 359.3l4.64 14.27h-9.28z" stroke="#3a414a" stroke-width="6" fill="#3a414a"/><path d="M118.17 597.62l-173.76-226.6" stroke="#3a414a" stroke-width="6" fill="none"/><path d="M124.2 600.55l-1.47 1.14V600h-5.46v1.37l-1.52-2 4.76-3.64z" stroke="#3a414a" stroke-width=".05" fill="#3a414a"/><path d="M-66.1 357.3l12.36 8.5-7.35 5.64z" stroke="#3a414a" stroke-width="6" fill="#3a414a"/><path d="M400 639.6h-13.68v8.28H400v5.4h-13.68v8.16H400v5.52h-13.68v8.16H400v5.4h-13.68v8.28H400v5.4h-13.68v7.8c0 4.68-3.84 8.52-8.52 8.52H370v13.68h-5.4v-13.68h-8.28v13.68h-5.4v-13.68h-8.16v13.68h-5.52v-13.68h-8.16v13.68h-5.4v-13.68h-8.28v13.68H310v-13.68h-7.8c-4.68 0-8.52-3.84-8.52-8.52v-7.8H280v-5.4h13.68v-8.28H280v-5.4h13.68v-8.16H280v-5.52h13.68v-8.16H280v-5.4h13.68v-8.28H280v-5.4h13.68v-7.8c0-4.68 3.84-8.52 8.52-8.52h7.8V604.2h5.4v13.68h8.28V604.2h5.4v13.68h8.16V604.2h5.52v13.68h8.16V604.2h5.4v13.68h8.28V604.2h5.4v13.68h7.8c4.68 0 8.52 3.84 8.52 8.52v7.8H400zM380.92 702v-75.6c0-1.68-1.44-3.12-3.12-3.12h-75.6c-1.68 0-3.12 1.44-3.12 3.12V702c0 1.68 1.44 3.12 3.12 3.12h75.6c1.68 0 3.12-1.44 3.12-3.12zm-30-28.2c3.48 3.12 5.4 7.44 5.4 12.12 0 5.04-2.16 9.6-6 12.72-2.88 2.4-6.6 3.72-10.32 3.72-1.2 0-2.28-.12-3.48-.36-6.36-1.32-11.4-6.6-12.6-12.96-1.08-5.76.96-11.4 5.16-15.24v-36.84c0-6 4.92-10.92 10.92-10.92s10.92 4.92 10.92 10.92zm-4.08 20.64c2.64-2.16 4.08-5.16 4.08-8.52 0-3.36-1.56-6.48-4.44-8.64l-1.08-.84v-39.48c0-3-2.4-5.52-5.4-5.52-3 0-5.4 2.52-5.4 5.52v39.48l-1.08.84c-3.48 2.52-5.04 6.6-4.2 10.68.72 4.32 4.08 7.8 8.28 8.64 3.36.72 6.72-.12 9.24-2.16zm-4.08-16.2c3.12 1.2 5.4 4.2 5.4 7.68 0 4.56-3.6 8.16-8.16 8.16-4.56 0-8.16-3.6-8.16-8.16 0-3.48 2.28-6.48 5.4-7.68v-30.36h5.52zm-26.4-43.56c.24.48.72 1.32 1.32 2.4 3 5.16 5.64 10.08 5.64 13.32 0 5.16-4.2 9.36-9.36 9.36-5.16 0-9.36-4.2-9.36-9.36 0-3.24 2.64-8.16 5.52-13.32.6-1.08 1.08-1.92 1.32-2.4.48-.96 1.44-1.56 2.52-1.56.96 0 1.92.6 2.4 1.56zm39.96 4.92v-5.4H370v5.4zm0 21.84v-5.4H370v5.4zm-42.36-7.08c2.16 0 3.84-1.8 3.84-3.96 0-1.68-2.28-6-3.84-9-1.68 3-3.96 7.32-3.96 9 0 2.16 1.8 3.96 3.96 3.96zm42.36-3.84v-5.4h10.92v5.4zm0 21.84v-5.4h10.92v5.4zM340 688.68c1.56 0 2.76-1.2 2.76-2.76 0-1.44-1.2-2.64-2.76-2.64-1.56 0-2.76 1.2-2.76 2.64 0 1.56 1.2 2.76 2.76 2.76zM600 639.6h-13.68v8.28H600v5.4h-13.68v8.16H600v5.52h-13.68v8.16H600v5.4h-13.68v8.28H600v5.4h-13.68v7.8c0 4.68-3.84 8.52-8.52 8.52H570v13.68h-5.4v-13.68h-8.28v13.68h-5.4v-13.68h-8.16v13.68h-5.52v-13.68h-8.16v13.68h-5.4v-13.68h-8.28v13.68H510v-13.68h-7.8c-4.68 0-8.52-3.84-8.52-8.52v-7.8H480v-5.4h13.68v-8.28H480v-5.4h13.68v-8.16H480v-5.52h13.68v-8.16H480v-5.4h13.68v-8.28H480v-5.4h13.68v-7.8c0-4.68 3.84-8.52 8.52-8.52h7.8V604.2h5.4v13.68h8.28V604.2h5.4v13.68h8.16V604.2h5.52v13.68h8.16V604.2h5.4v13.68h8.28V604.2h5.4v13.68h7.8c4.68 0 8.52 3.84 8.52 8.52v7.8H600zM580.92 702v-75.6c0-1.68-1.44-3.12-3.12-3.12h-75.6c-1.68 0-3.12 1.44-3.12 3.12V702c0 1.68 1.44 3.12 3.12 3.12h75.6c1.68 0 3.12-1.44 3.12-3.12zm-65.64-17.16l11.28 7.08-2.88 4.56-14.4-9 2.64-14.16-8.4-9.12 8.4-9-2.64-14.28 14.4-9 2.88 4.56-11.28 7.08 2.52 13.32-6.84 7.32 6.84 7.32zm61.2-20.64l-8.4 9.12 2.64 14.16-14.4 9-2.88-4.56 11.28-7.08-2.52-13.32 6.84-7.32-6.84-7.32 2.52-13.32-11.28-7.08 2.88-4.56 14.4 9-2.64 14.28zm-48.12 14.16l5.64 3-2.64 4.8-9-4.8 1.68-10.56-5.16-6.6 5.16-6.6-1.68-10.56 9-4.8 2.64 4.8-5.64 3 1.44 9-3.96 5.16 3.96 5.16zm29.28 3l-9 4.8-2.64-4.8 5.64-3-1.44-9 3.96-5.16-3.96-5.16 1.44-9-5.64-3 2.64-4.8 9 4.8-1.68 10.56 5.16 6.6-5.16 6.6zM540 656.04c4.56 0 8.16 3.6 8.16 8.16 0 4.56-3.6 8.16-8.16 8.16-4.56 0-8.16-3.6-8.16-8.16 0-4.56 3.6-8.16 8.16-8.16zm0 10.92c1.56 0 2.76-1.2 2.76-2.76 0-1.56-1.2-2.76-2.76-2.76-1.56 0-2.76 1.2-2.76 2.76 0 1.56 1.2 2.76 2.76 2.76z" stroke="#000" stroke-opacity="0" fill="#3f8624"/><path d="M779.73 712.53h-79.46c-4.74 0-8.6-3.86-8.6-8.6v-79.5c0-4.65 3.86-8.52 8.6-8.52h79.46c4.74 0 8.6 3.88 8.6 8.5v79.54c0 4.73-3.86 8.6-8.6 8.6zm-79.46-91.1h-.1c-1.64 0-3.1 1.34-3.1 3v79.5c0 1.75 1.45 3.1 3.2 3.1h79.46c1.75 0 3.2-1.36 3.2-3.1v-79.5c-.1-1.66-1.45-3.1-3.2-3z" stroke="#fff" stroke-opacity="0" fill="#3f8624"/><path d="M708.46 604.2h5.46v14.4h-5.46v-14.4zM722.88 604.2h5.46v14.4h-5.46v-14.4zM737.27 604.2h5.46v14.4h-5.46v-14.4zM751.66 604.2h5.46v14.4h-5.46v-14.4zM766.08 604.2h5.46v14.4h-5.46v-14.4zM708.46 709.8h5.46v14.4h-5.46v-14.4zM722.88 709.8h5.46v14.4h-5.46v-14.4zM737.27 709.8h5.46v14.4h-5.46v-14.4zM751.66 709.8h5.46v14.4h-5.46v-14.4zM766.08 709.8h5.46v14.4h-5.46v-14.4zM680 632.65h14.4v5.47H680v-5.47zM680 647.07h14.4v5.46H680v-5.46zM680 661.47h14.4v5.46H680v-5.46zM680 675.86h14.4v5.46H680v-5.46zM680 690.28h14.4v5.46H680v-5.46zM785.6 632.65H800v5.47h-14.4v-5.47zM785.6 647.07H800v5.46h-14.4v-5.46zM785.6 661.47H800v5.46h-14.4v-5.46zM785.6 675.86H800v5.46h-14.4v-5.46zM785.6 690.28H800v5.46h-14.4v-5.46zM743.22 689.4c-12.06 0-21.85-9.78-21.85-21.85 0-12.05 9.8-21.84 21.85-21.84 12.06 0 21.85 9.8 21.85 21.85 0 12.07-9.8 21.85-21.85 21.85zm0-38.23c-9.04 0-16.38 7.34-16.38 16.38 0 9.05 7.34 16.4 16.38 16.4 9.05 0 16.4-7.35 16.4-16.4-.05-9-7.4-16.3-16.4-16.25z" stroke="#fff" stroke-opacity="0" fill="#3f8624"/><path d="M743.22 681.76c-7.82 0-14.17-6.35-14.17-14.18 0-7.82 6.35-14.17 14.17-14.17 7.83 0 14.18 6.36 14.18 14.18v.03c-.03 7.83-6.35 14.16-14.18 14.16zm0-22.85c-4.82 0-8.7 3.9-8.7 8.7 0 4.83 3.88 8.7 8.7 8.7 4.82 0 8.7-3.87 8.7-8.7 0-4.8-3.88-8.7-8.7-8.7zM720.88 647.8h-9.7c-1.5 0-2.73-1.2-2.73-2.72v-4.35c-.24-2.87 1.9-5.42 4.76-5.67h5.46c2.9.14 5.1 2.6 4.98 5.46-.02.07-.02.14-.02.2v4.36c0 1.5-1.23 2.73-2.74 2.73zm-6.88-5.45h4.15v-1.53-.22h-4.1v.22zM719.3 657h-6.6c-.8.02-1.46-.6-1.5-1.38v-2.05c.04-.8.7-1.4 1.5-1.36h6.6c.8-.02 1.45.58 1.5 1.37v2.05c-.05.8-.7 1.4-1.5 1.37z" stroke="#fff" stroke-opacity="0" fill="#3f8624"/><path d="M771.52 695.74h-63.1c-4.02 0-7.2-3.22-7.2-7.2v-39.1c.08-3.92 3.25-7.07 7.2-7.07h19.85l.77-3.9c.47-2.28 2.5-5.82 5.74-5.82h17.2c3.34 0 5.28 3.54 5.74 5.8l.85 3.92h12.95c4.03 0 7.2 3.22 7.2 7.2v38.98c0 3.97-3.17 7.2-7.2 7.2zm-63.1-47.95c-1 0-1.77.75-1.77 1.76v39c0 .93.77 1.7 1.78 1.7h63.1c1 0 1.77-.77 1.77-1.7v-39.13c0-.94-.77-1.7-1.78-1.7H756.4c-1.3 0-2.48-.88-2.7-2.2l-1.33-5.94c-.15-.5-.3-.95-.7-1.46h-16.42c-.32.44-.55.88-.7 1.45l-1.24 6c-.3 1.25-1.4 2.2-2.78 2.13z" stroke="#fff" stroke-opacity="0" fill="#3f8624"/><path d="M470.15 327.73l-22.7-78.48h12.17l16.28 66.55 16.73-66.55h11.73l-22.54 78.48zM524.7 297.26v30.47h-10.67V249.6h23c8.12-.24 15.2 4.14 18.54 11.56 1.85 4.14 2.65 7.97 2.56 12.42.3 6.64-1.6 12.35-5.83 17.43-3.97 4.54-9.22 6.8-15.27 6.65zm0-8.75h11.18c3.4.16 6.36-1.25 8.3-4.06 2.25-3.44 3.18-7.03 2.87-11.17.27-4.22-.75-7.8-3.04-11.33-2.03-2.66-4.98-4.06-8.34-3.98h-10.94zM616.2 325.33c-5.26 2.42-10.2 3.55-16 3.47-20.25 0-30.4-13.36-30.4-40.07-.78-11.1 1.74-20.76 7.83-30.1 5.72-7.23 13.82-10.77 22.98-10.2 5.3.07 9.78.96 14.66 3.05v8.93c-4.56-1.52-8.56-2.24-13.35-2.32-6.27-.5-11.85 2-15.57 7.08-4.05 7.16-5.63 14.24-4.98 22.36v2.74c-.56 7.96.93 14.96 4.75 22.04 3.67 5.07 9.16 7.56 15.35 7.08 5.3-.24 9.72-1.13 14.74-2.8z" stroke="#fff" stroke-opacity="0" fill="#232f3e"/><path d="M616.8 352.8H437.6c-30.72 0-56-19.92-57.6-49.7v-4.14c0-34.3 23.36-49.7 43.84-54.62-.32-3.36-.32-6.3-.32-9.67.96-32.14 18.88-58.76 48-72.17 32-13.6 66.88-6.9 91.2 17.75 10.56 10.45 17.6 21.5 22.4 35.5 18.88-24.26 60.16-16.97 62.72 27.8 19.84 3.94 52.16 15.97 52.16 56.2 0 46.34-34.88 53.05-57.6 53.05h-25.6z" stroke="#232f3e" stroke-width="2" fill="#fff" fill-opacity="0"/><path d="M430 250.2a6 6 0 0 1 6-6h198a6 6 0 0 1 6 6v88a6 6 0 0 1-6 6H436a6 6 0 0 1-6-6z" fill="#fff"/><path d="M340.3 603.8l.6-.8m2.45-3.15l1.22-1.58m2.44-3.16l1.22-1.57m2.44-3.16l1.22-1.58m2.43-3.17l1.23-1.58m2.44-3.16l1.22-1.6m2.42-3.15l1.22-1.58m2.44-3.16l1.22-1.57m2.43-3.16l1.22-1.58m2.44-3.18l1.2-1.57m2.44-3.17l1.22-1.57m2.44-3.16l1.22-1.58m2.43-3.16l1.22-1.58m2.44-3.16l1.22-1.58m2.44-3.16l1.22-1.58m2.44-3.16l1.2-1.58m2.45-3.16l1.22-1.58m2.42-3.16l1.22-1.58m2.44-3.16l1.22-1.58m2.43-3.16l1.22-1.58m2.44-3.16l1.2-1.58m2.44-3.16l1.22-1.58m2.44-3.16l1.2-1.58m2.45-3.16l1.22-1.58m2.44-3.16l1.22-1.58m2.44-3.16l1.22-1.58m2.44-3.16l1.2-1.58m2.45-3.16l1.22-1.6m2.42-3.14l1.22-1.6m2.44-3.15l1.22-1.57m2.43-3.16l1.22-1.58m2.44-3.17l1.2-1.58m2.44-3.16l1.22-1.6m2.44-3.15l1.2-1.58m2.45-3.16l1.22-1.57m2.44-3.16l1.22-1.58m2.44-3.17l1.22-1.58m2.44-3.16l1.2-1.6m2.45-3.15l1.22-1.58m2.43-3.16l1.2-1.57m2.45-3.16l1.22-1.58m2.43-3.17l1.22-1.58m2.44-3.16l1.2-1.6m2.44-3.15l1.22-1.58m2.44-3.16l1.22-1.57m2.43-3.17l1.22-1.57m2.44-3.18l1.22-1.58m2.44-3.16l1.22-1.58m2.44-3.16l1.2-1.58m2.45-3.16l1.22-1.58m2.42-3.16l.6-.8" stroke="#3a414a" fill="none"/><path d="M340.7 604.1l-.07.1h-1.26l.55-.72z" stroke="#3a414a" stroke-width=".05" fill="#3a414a"/><path d="M532.05 355.08L527 369.2l-7.33-5.65z" stroke="#3a414a" fill="#3a414a"/><path d="M540 603.7v-1m0-4v-2m0-3.98v-2m0-4v-1.98m0-4v-2m0-3.98v-2m0-4v-2m0-3.98v-2m0-4v-1.98m0-4v-2m0-3.98v-2m0-4v-2m0-3.98v-2m0-3.98v-2m0-4v-2m0-3.98v-2m0-4v-1.98m0-4v-2m0-3.98v-2m0-4v-2m0-3.98v-2m0-4v-1.98m0-4v-2m0-3.98v-2m0-4V459m0-4v-2m0-3.98v-2m0-4v-2m0-3.98v-2m0-4v-1.98m0-4v-2m0-3.98v-2m0-4v-1.98m0-4v-2m0-3.98v-2m0-4v-2m0-3.98v-2m0-4v-1.98m0-4v-2m0-3.98v-1" stroke="#3a414a" fill="none"/><path d="M540.5 604.2h-1v-.52h1z" stroke="#3a414a" stroke-width=".05" fill="#3a414a"/><path d="M540 355.4l4.63 14.28h-9.26z" stroke="#3a414a" fill="#3a414a"/><path d="M739.7 603.8l-.6-.8m-2.44-3.15l-1.2-1.58m-2.43-3.16l-1.2-1.57m-2.44-3.16l-1.22-1.58m-2.42-3.17l-1.22-1.58m-2.42-3.16l-1.2-1.6m-2.44-3.15l-1.2-1.58m-2.43-3.16l-1.22-1.57m-2.42-3.16l-1.2-1.58m-2.43-3.17l-1.2-1.58m-2.43-3.16l-1.22-1.6m-2.42-3.15l-1.2-1.58m-2.44-3.16l-1.2-1.57m-2.43-3.16l-1.2-1.58m-2.44-3.17l-1.22-1.58m-2.43-3.16l-1.2-1.6m-2.43-3.15l-1.22-1.58M678.5 524l-1.2-1.57m-2.44-3.16l-1.2-1.58m-2.43-3.17l-1.2-1.58m-2.43-3.16l-1.2-1.6m-2.44-3.15l-1.2-1.58m-2.43-3.16l-1.2-1.57m-2.44-3.16l-1.2-1.58m-2.44-3.17l-1.2-1.58m-2.43-3.16l-1.22-1.6m-2.43-3.15l-1.2-1.58m-2.43-3.16l-1.22-1.57m-2.42-3.16l-1.2-1.58m-2.44-3.17l-1.2-1.58m-2.43-3.16l-1.2-1.6m-2.43-3.15l-1.2-1.58m-2.44-3.16l-1.2-1.57m-2.43-3.16l-1.22-1.58m-2.42-3.17l-1.2-1.58M613 438.7l-1.2-1.6m-2.43-3.15l-1.23-1.58m-2.42-3.16l-1.2-1.57m-2.44-3.16l-1.2-1.58m-2.42-3.17l-1.22-1.58m-2.42-3.16l-1.2-1.6m-2.44-3.15l-1.2-1.58m-2.43-3.16l-1.22-1.57m-2.42-3.16l-1.2-1.58m-2.44-3.17l-1.22-1.58m-2.42-3.16l-1.2-1.6m-2.44-3.15l-1.2-1.58m-2.44-3.16l-1.2-1.57m-2.43-3.16l-1.2-1.58m-2.44-3.17l-1.2-1.58m-2.42-3.17l-.6-.78" stroke="#3a414a" fill="none"/><path d="M740.63 604.2h-1.26l-.08-.1.8-.62z" stroke="#3a414a" stroke-width=".05" fill="#3a414a"/><path d="M548.88 355.08l12.36 8.5-7.35 5.64z" stroke="#3a414a" fill="#3a414a"/><path d="M819.28 703.95l-12.36-21.23c-.96-1.7-2.64-2.67-4.62-2.72h-24.6c-1.98.05-3.66 1-4.62 2.72l-12.36 21.18c-.96 1.65-.96 3.57 0 5.28l12.36 21.33c.96 1.77 2.58 2.8 4.62 2.84h24.6c1.98-.05 3.66-1.07 4.62-2.83l12.36-21.16c.96-1.76.96-3.68 0-5.4z" stroke="#000" stroke-opacity="0" fill="#4285f4"/><path d="M804.7 697.15l-1.06.96-8.25-4.63-3.92-3.9-16.04 10.25.9.9-.17 11.6-.73 2.72 18.44 18.3h8.43c2-.1 3.66-1.1 4.65-2.82l11.48-19.77z" stroke="#000" stroke-opacity="0" fill-opacity=".07"/><path d="M792.04 690.92c0 1.05-.86 1.9-1.9 1.9-1.07 0-1.92-.85-1.92-1.9 0-1.04.85-1.9 1.9-1.9 1.06 0 1.92.86 1.92 1.9zM805.28 698.5c0 1.05-.86 1.9-1.9 1.9-1.07 0-1.93-.85-1.93-1.9 0-1.04.86-1.9 1.9-1.9 1.07 0 1.93.86 1.93 1.9zM778.7 698.5c0 1.05-.85 1.9-1.9 1.9-1.06 0-1.9-.85-1.9-1.9 0-1.04.84-1.9 1.9-1.9 1.05 0 1.9.86 1.9 1.9zM793.13 706.63c0 1.64-1.34 2.98-3 2.98s-3-1.33-3-2.97c0-1.64 1.34-2.97 3-2.97s3 1.33 3 2.98zM805.28 713.74c0 1.05-.86 1.9-1.9 1.9-1.07 0-1.93-.85-1.93-1.9 0-1.04.86-1.9 1.9-1.9 1.07 0 1.93.86 1.93 1.9zM778.7 713.74c0 1.05-.85 1.9-1.9 1.9-1.06 0-1.9-.85-1.9-1.9 0-1.04.84-1.9 1.9-1.9 1.05 0 1.9.86 1.9 1.9z" stroke="#000" stroke-opacity="0" fill="#fff"/><path d="M790.06 707.28l-14.76-8.77 14.76-8.44 14.76 8.28zm-12.02-8.75l12.02 7.15 12.04-7.3-12.04-6.74z" stroke="#000" stroke-opacity="0" fill="#fff"/><path d="M790.07 723.5l-14.8-9.84 14.83-8.15 14.6 8.25zm-12.2-9.75l12.2 8.07 12-7.98-11.97-6.76z" stroke="#000" stroke-opacity="0" fill="#fff"/><path d="M775.98 698.8l1.2-.68 13.4 24.1-1.2.67-13.4-24.1z" stroke="#000" stroke-opacity="0" stroke-width=".88" fill="#fff"/><path d="M789.54 722.42l13.1-24.06 1.2.64-13.08 24.06-1.22-.64z" stroke="#000" stroke-opacity="0" stroke-width=".47" fill="#fff"/><path d="M776.15 713.3l13.22-22.67 1.2.68L777.35 714l-1.2-.68z" stroke="#000" stroke-opacity="0" stroke-width=".5" fill="#fff"/><path d="M789.55 691.2l1.2-.7 13.27 23.03-1.2.7-13.27-23.03z" stroke="#000" stroke-opacity="0" stroke-width=".87" fill="#fff"/><path d="M789.44 690.73h1.4v31.8h-1.4v-31.8zM775.86 698.66h1.4V714h-1.4v-15.34zM802.67 698.5h1.38v15.35h-1.38V698.5z" stroke="#000" stroke-opacity="0" fill="#fff"/><path d="M792.04 722.6c0 1.04-.86 1.9-1.9 1.9-1.07 0-1.92-.86-1.92-1.9s.85-1.9 1.9-1.9c1.06 0 1.92.86 1.92 1.9z" stroke="#000" stroke-opacity="0" fill="#fff"/><path d="M619.28 703.95l-12.36-21.23c-.96-1.7-2.64-2.67-4.62-2.72h-24.6c-1.98.05-3.66 1-4.62 2.72l-12.36 21.18c-.96 1.65-.96 3.57 0 5.28l12.36 21.33c.96 1.77 2.58 2.8 4.62 2.84h24.6c1.98-.05 3.66-1.07 4.62-2.83l12.36-21.16c.96-1.76.96-3.68 0-5.4z" stroke="#000" stroke-opacity="0" fill="#4285f4"/><path d="M604.7 697.15l-1.06.96-8.25-4.63-3.92-3.9-16.04 10.25.9.9-.17 11.6-.73 2.72 18.44 18.3h8.43c2-.1 3.66-1.1 4.65-2.82l11.48-19.77z" stroke="#000" stroke-opacity="0" fill-opacity=".07"/><path d="M592.04 690.92c0 1.05-.86 1.9-1.9 1.9-1.07 0-1.92-.85-1.92-1.9 0-1.04.85-1.9 1.9-1.9 1.06 0 1.92.86 1.92 1.9zM605.28 698.5c0 1.05-.86 1.9-1.9 1.9-1.07 0-1.93-.85-1.93-1.9 0-1.04.86-1.9 1.9-1.9 1.07 0 1.93.86 1.93 1.9zM578.7 698.5c0 1.05-.85 1.9-1.9 1.9-1.06 0-1.9-.85-1.9-1.9 0-1.04.84-1.9 1.9-1.9 1.05 0 1.9.86 1.9 1.9zM593.13 706.63c0 1.64-1.34 2.98-3 2.98s-3-1.33-3-2.97c0-1.64 1.34-2.97 3-2.97s3 1.33 3 2.98zM605.28 713.74c0 1.05-.86 1.9-1.9 1.9-1.07 0-1.93-.85-1.93-1.9 0-1.04.86-1.9 1.9-1.9 1.07 0 1.93.86 1.93 1.9zM578.7 713.74c0 1.05-.85 1.9-1.9 1.9-1.06 0-1.9-.85-1.9-1.9 0-1.04.84-1.9 1.9-1.9 1.05 0 1.9.86 1.9 1.9z" stroke="#000" stroke-opacity="0" fill="#fff"/><path d="M590.06 707.28l-14.76-8.77 14.76-8.44 14.76 8.28zm-12.02-8.75l12.02 7.15 12.04-7.3-12.04-6.74z" stroke="#000" stroke-opacity="0" fill="#fff"/><path d="M590.07 723.5l-14.8-9.84 14.83-8.15 14.6 8.25zm-12.2-9.75l12.2 8.07 12-7.98-11.97-6.76z" stroke="#000" stroke-opacity="0" fill="#fff"/><path d="M575.98 698.8l1.2-.68 13.4 24.1-1.2.67-13.4-24.1z" stroke="#000" stroke-opacity="0" stroke-width=".88" fill="#fff"/><path d="M589.54 722.42l13.1-24.06 1.2.64-13.08 24.06-1.22-.64z" stroke="#000" stroke-opacity="0" stroke-width=".47" fill="#fff"/><path d="M576.15 713.3l13.22-22.67 1.2.68L577.35 714l-1.2-.68z" stroke="#000" stroke-opacity="0" stroke-width=".5" fill="#fff"/><path d="M589.55 691.2l1.2-.7 13.27 23.03-1.2.7-13.27-23.03z" stroke="#000" stroke-opacity="0" stroke-width=".87" fill="#fff"/><path d="M589.44 690.73h1.4v31.8h-1.4v-31.8zM575.86 698.66h1.4V714h-1.4v-15.34zM602.67 698.5h1.38v15.35h-1.38V698.5z" stroke="#000" stroke-opacity="0" fill="#fff"/><path d="M592.04 722.6c0 1.04-.86 1.9-1.9 1.9-1.07 0-1.92-.86-1.92-1.9s.85-1.9 1.9-1.9c1.06 0 1.92.86 1.92 1.9z" stroke="#000" stroke-opacity="0" fill="#fff"/><path d="M419.28 703.95l-12.36-21.23c-.96-1.7-2.64-2.67-4.62-2.72h-24.6c-1.98.05-3.66 1-4.62 2.72l-12.36 21.18c-.96 1.65-.96 3.57 0 5.28l12.36 21.33c.96 1.77 2.58 2.8 4.62 2.84h24.6c1.98-.05 3.66-1.07 4.62-2.83l12.36-21.16c.96-1.76.96-3.68 0-5.4z" stroke="#000" stroke-opacity="0" fill="#4285f4"/><path d="M404.7 697.15l-1.06.96-8.25-4.63-3.92-3.9-16.04 10.25.9.9-.17 11.6-.73 2.72 18.44 18.3h8.43c2-.1 3.66-1.1 4.65-2.82l11.48-19.77z" stroke="#000" stroke-opacity="0" fill-opacity=".07"/><path d="M392.04 690.92c0 1.05-.86 1.9-1.9 1.9-1.07 0-1.92-.85-1.92-1.9 0-1.04.85-1.9 1.9-1.9 1.06 0 1.92.86 1.92 1.9zM405.28 698.5c0 1.05-.86 1.9-1.9 1.9-1.07 0-1.93-.85-1.93-1.9 0-1.04.86-1.9 1.92-1.9 1.05 0 1.9.86 1.9 1.9zM378.7 698.5c0 1.05-.85 1.9-1.9 1.9-1.06 0-1.9-.85-1.9-1.9 0-1.04.84-1.9 1.9-1.9 1.05 0 1.9.86 1.9 1.9zM393.13 706.63c0 1.64-1.34 2.98-3 2.98s-3-1.33-3-2.97c0-1.64 1.34-2.97 3-2.97s3 1.33 3 2.98zM405.28 713.74c0 1.05-.86 1.9-1.9 1.9-1.07 0-1.93-.85-1.93-1.9 0-1.04.86-1.9 1.92-1.9 1.05 0 1.9.86 1.9 1.9zM378.7 713.74c0 1.05-.85 1.9-1.9 1.9-1.06 0-1.9-.85-1.9-1.9 0-1.04.84-1.9 1.9-1.9 1.05 0 1.9.86 1.9 1.9z" stroke="#000" stroke-opacity="0" fill="#fff"/><path d="M390.06 707.28l-14.76-8.77 14.76-8.44 14.76 8.28zm-12.02-8.75l12.02 7.15 12.04-7.3-12.04-6.74z" stroke="#000" stroke-opacity="0" fill="#fff"/><path d="M390.07 723.5l-14.8-9.84 14.83-8.15 14.6 8.25zm-12.2-9.75l12.2 8.07 12-7.98-11.97-6.76z" stroke="#000" stroke-opacity="0" fill="#fff"/><path d="M375.98 698.8l1.2-.68 13.4 24.1-1.2.67-13.4-24.1z" stroke="#000" stroke-opacity="0" stroke-width=".88" fill="#fff"/><path d="M389.54 722.42l13.1-24.06 1.2.64-13.08 24.06-1.22-.64z" stroke="#000" stroke-opacity="0" stroke-width=".47" fill="#fff"/><path d="M376.15 713.3l13.22-22.67 1.2.68L377.35 714l-1.2-.68z" stroke="#000" stroke-opacity="0" stroke-width=".5" fill="#fff"/><path d="M389.55 691.2l1.2-.7 13.27 23.03-1.2.7-13.27-23.03z" stroke="#000" stroke-opacity="0" stroke-width=".87" fill="#fff"/><path d="M389.44 690.73h1.4v31.8h-1.4v-31.8zM375.86 698.66h1.4V714h-1.4v-15.34zM402.67 698.5h1.38v15.35h-1.38V698.5z" stroke="#000" stroke-opacity="0" fill="#fff"/><path d="M392.04 722.6c0 1.04-.86 1.9-1.9 1.9-1.07 0-1.92-.86-1.92-1.9s.85-1.9 1.9-1.9c1.06 0 1.92.86 1.92 1.9z" stroke="#000" stroke-opacity="0" fill="#fff"/><path d="M-11.4 331.4c-15.28 0-31.43-4.22-31.43-12v-58.8c0-7.78 16.15-12 31.42-12 15.2 0 31.4 4.22 31.4 12v58.8c0 7.78-16.2 12-31.4 12zm0-79.24c-17.3 0-27.9 4.9-27.9 8.45v58.8c0 3.47 10.55 8.44 27.9 8.44 17.33 0 27.88-4.9 27.88-8.45v-58.8c0-3.55-10.62-8.44-27.9-8.44z" stroke="#fff" stroke-opacity="0" fill="#232f3e"/><path d="M-11.4 270.9c-15.28 0-31.43-4.23-31.43-12.05h3.52c0 3.53 10.55 8.5 27.9 8.5 17.33 0 27.88-4.94 27.88-8.5H20c0 7.82-16.2 12.04-31.4 12.04zM535 336.23c-15.27 0-31.4-4.23-31.4-12v-58.8c0-7.78 16.13-12 31.4-12 15.2 0 31.4 4.22 31.4 12v58.8c0 7.77-16.2 12-31.4 12zm0-79.24c-17.28 0-27.9 4.87-27.9 8.43v58.8c0 3.47 10.56 8.44 27.9 8.44 17.34 0 27.9-4.9 27.9-8.45v-58.8c0-3.55-10.62-8.43-27.9-8.43z" stroke="#fff" stroke-opacity="0" fill="#232f3e"/><path d="M535 275.7c-15.27 0-31.4-4.2-31.4-12.02h3.5c0 3.53 10.56 8.5 27.9 8.5 17.34 0 27.9-4.94 27.9-8.5h3.5c0 7.82-16.2 12.03-31.4 12.03z" stroke="#fff" stroke-opacity="0" fill="#232f3e"/><path d="M-200 746a6 6 0 0 1 6-6H34a6 6 0 0 1 6 6v48a6 6 0 0 1-6 6h-228a6 6 0 0 1-6-6z" stroke="#000" stroke-opacity="0" fill="#fff" fill-opacity="0"/><use xlink:href="#a" transform="matrix(1,0,0,1,-195,745) translate(52.777777777777764 30.27777777777778)"/><path d="M420 746a6 6 0 0 1 6-6h228a6 6 0 0 1 6 6v48a6 6 0 0 1-6 6H426a6 6 0 0 1-6-6z" stroke="#000" stroke-opacity="0" fill="#fff" fill-opacity="0"/><use xlink:href="#b" transform="matrix(1,0,0,1,425,745) translate(52.71604938271604 30.27777777777778)"/><defs><path fill="#3a414a" d="M212-179c-10-28-35-45-73-45-59 0-87 40-87 99 0 60 29 101 89 101 43 0 62-24 78-52l27 14C228-24 195 4 139 4 59 4 22-46 18-125c-6-104 99-153 187-111 19 9 31 26 39 46" id="c"/><path fill="#3a414a" d="M100-194c63 0 86 42 84 106H49c0 40 14 67 53 68 26 1 43-12 49-29l28 8c-11 28-37 45-77 45C44 4 14-33 15-96c1-61 26-98 85-98zm52 81c6-60-76-77-97-28-3 7-6 17-6 28h103" id="d"/><path fill="#3a414a" d="M117-194c89-4 53 116 60 194h-32v-121c0-31-8-49-39-48C34-167 62-67 57 0H25l-1-190h30c1 10-1 24 2 32 11-22 29-35 61-36" id="e"/><path fill="#3a414a" d="M59-47c-2 24 18 29 38 22v24C64 9 27 4 27-40v-127H5v-23h24l9-43h21v43h35v23H59v120" id="f"/><path fill="#3a414a" d="M114-163C36-179 61-72 57 0H25l-1-190h30c1 12-1 29 2 39 6-27 23-49 58-41v29" id="g"/><path fill="#3a414a" d="M141-36C126-15 110 5 73 4 37 3 15-17 15-53c-1-64 63-63 125-63 3-35-9-54-41-54-24 1-41 7-42 31l-33-3c5-37 33-52 76-52 45 0 72 20 72 64v82c-1 20 7 32 28 27v20c-31 9-61-2-59-35zM48-53c0 20 12 33 32 33 41-3 63-29 60-74-43 2-92-5-92 41" id="h"/><path fill="#3a414a" d="M24 0v-261h32V0H24" id="i"/><path fill="#3a414a" d="M24-231v-30h32v30H24zM24 0v-190h32V0H24" id="j"/><path fill="#3a414a" d="M9 0v-24l116-142H16v-24h144v24L44-24h123V0H9" id="k"/><path fill="#3a414a" d="M85-194c31 0 48 13 60 33l-1-100h32l1 261h-30c-2-10 0-23-3-31C134-8 116 4 85 4 32 4 16-35 15-94c0-66 23-100 70-100zm9 24c-40 0-46 34-46 75 0 40 6 74 45 74 42 0 51-32 51-76 0-42-9-74-50-73" id="l"/><path fill="#3a414a" d="M100-194c62-1 85 37 85 99 1 63-27 99-86 99S16-35 15-95c0-66 28-99 85-99zM99-20c44 1 53-31 53-75 0-43-8-75-51-75s-53 32-53 75 10 74 51 75" id="m"/><g id="a"><use transform="matrix(0.06172839506172839,0,0,0.06172839506172839,0,0)" xlink:href="#c"/><use transform="matrix(0.06172839506172839,0,0,0.06172839506172839,15.987654320987653,0)" xlink:href="#d"/><use transform="matrix(0.06172839506172839,0,0,0.06172839506172839,28.333333333333332,0)" xlink:href="#e"/><use transform="matrix(0.06172839506172839,0,0,0.06172839506172839,40.67901234567901,0)" xlink:href="#f"/><use transform="matrix(0.06172839506172839,0,0,0.06172839506172839,46.851851851851855,0)" xlink:href="#g"/><use transform="matrix(0.06172839506172839,0,0,0.06172839506172839,54.19753086419753,0)" xlink:href="#h"/><use transform="matrix(0.06172839506172839,0,0,0.06172839506172839,66.54320987654322,0)" xlink:href="#i"/><use transform="matrix(0.06172839506172839,0,0,0.06172839506172839,71.41975308641976,0)" xlink:href="#j"/><use transform="matrix(0.06172839506172839,0,0,0.06172839506172839,76.2962962962963,0)" xlink:href="#k"/><use transform="matrix(0.06172839506172839,0,0,0.06172839506172839,87.40740740740742,0)" xlink:href="#h"/><use transform="matrix(0.06172839506172839,0,0,0.06172839506172839,99.7530864197531,0)" xlink:href="#l"/><use transform="matrix(0.06172839506172839,0,0,0.06172839506172839,112.09876543209879,0)" xlink:href="#m"/></g><path fill="#3a414a" d="M140-251c81 0 123 46 123 126C263-46 219 4 140 4 59 4 17-45 17-125s42-126 123-126zm0 227c63 0 89-41 89-101s-29-99-89-99c-61 0-89 39-89 99S79-25 140-24" id="n"/><path fill="#3a414a" d="M16-82v-28h88v28H16" id="o"/><path fill="#3a414a" d="M106-169C34-169 62-67 57 0H25v-261h32l-1 103c12-21 28-36 61-36 89 0 53 116 60 194h-32v-121c2-32-8-49-39-48" id="p"/><path fill="#3a414a" d="M177-190C167-65 218 103 67 71c-23-6-38-20-44-43l32-5c15 47 100 32 89-28v-30C133-14 115 1 83 1 29 1 15-40 15-95c0-56 16-97 71-98 29-1 48 16 59 35 1-10 0-23 2-32h30zM94-22c36 0 50-32 50-73 0-42-14-75-50-75-39 0-46 34-46 75s6 73 46 73" id="q"/><g id="b"><use transform="matrix(0.06172839506172839,0,0,0.06172839506172839,0,0)" xlink:href="#n"/><use transform="matrix(0.06172839506172839,0,0,0.06172839506172839,17.28395061728395,0)" xlink:href="#e"/><use transform="matrix(0.06172839506172839,0,0,0.06172839506172839,29.629629629629626,0)" xlink:href="#o"/><use transform="matrix(0.06172839506172839,0,0,0.06172839506172839,36.9753086419753,0)" xlink:href="#f"/><use transform="matrix(0.06172839506172839,0,0,0.06172839506172839,43.148148148148145,0)" xlink:href="#p"/><use transform="matrix(0.06172839506172839,0,0,0.06172839506172839,55.49382716049382,0)" xlink:href="#d"/><use transform="matrix(0.06172839506172839,0,0,0.06172839506172839,67.8395061728395,0)" xlink:href="#o"/><use transform="matrix(0.06172839506172839,0,0,0.06172839506172839,75.18518518518519,0)" xlink:href="#d"/><use transform="matrix(0.06172839506172839,0,0,0.06172839506172839,87.53086419753087,0)" xlink:href="#l"/><use transform="matrix(0.06172839506172839,0,0,0.06172839506172839,99.87654320987656,0)" xlink:href="#q"/><use transform="matrix(0.06172839506172839,0,0,0.06172839506172839,112.22222222222224,0)" xlink:href="#d"/></g></defs></g></svg>